<?xml version="1.0" encoding="UTF-8" ?>
<!DOCTYPE svg PUBLIC "-//W3C//DTD SVG 1.1//EN" "http://www.w3.org/Graphics/SVG/1.1/DTD/svg11.dtd">
<svg width="400pt" height="400pt" viewBox="0 0 400 400" version="1.1" xmlns="http://www.w3.org/2000/svg">
<path fill="#000000" d=" M 0.00 0.00 L 400.00 0.00 L 400.00 400.00 L 0.00 400.00 L 0.00 0.00 Z" />
<path fill="#f53948" d=" M 20.02 74.02 C 30.01 73.98 39.99 73.98 49.98 74.02 C 50.12 88.85 49.80 103.68 50.13 118.50 C 55.20 103.81 59.67 88.91 64.42 74.12 C 73.75 73.89 83.08 73.99 92.41 74.06 C 87.03 90.72 81.43 107.31 75.91 123.93 C 75.45 125.41 74.94 126.99 75.49 128.53 C 81.39 149.35 87.60 170.10 93.40 190.95 C 83.09 191.00 72.78 191.10 62.46 190.90 C 58.34 174.74 54.69 158.43 50.17 142.38 C 49.76 158.57 50.15 174.78 49.98 190.98 C 39.99 191.02 30.01 191.02 20.02 190.98 C 19.99 151.99 19.99 113.01 20.02 74.02 Z" />
<path fill="#f53948" d=" M 110.23 74.07 C 124.73 73.94 139.24 73.96 153.75 74.06 C 159.63 113.03 165.66 151.98 171.43 190.96 C 161.36 191.02 151.29 191.05 141.23 190.95 C 140.68 183.99 140.05 177.04 139.52 170.08 C 135.51 169.95 131.50 169.95 127.50 170.08 C 126.95 177.04 126.32 183.99 125.77 190.95 C 115.52 191.07 105.27 190.98 95.02 191.00 C 100.04 152.02 105.20 113.05 110.23 74.07 Z" />
<path fill="#f53948" d=" M 177.02 74.02 C 185.66 73.99 194.30 73.97 202.94 74.03 C 208.79 91.16 213.79 108.58 219.88 125.63 C 220.18 108.43 219.88 91.22 220.02 74.02 C 228.34 73.98 236.66 73.98 244.98 74.02 C 245.01 113.01 245.01 151.99 244.98 190.98 C 236.01 191.01 227.03 191.04 218.06 190.97 C 212.56 173.58 207.72 155.98 202.10 138.63 C 201.84 156.08 202.10 173.53 201.98 190.98 C 193.66 191.02 185.34 191.02 177.02 190.98 C 176.99 151.99 176.99 113.01 177.02 74.02 Z" />
<path fill="#f53948" d=" M 251.04 74.02 C 260.29 74.00 269.53 73.92 278.78 74.07 C 281.31 89.46 283.76 104.86 285.89 120.30 C 289.35 105.03 291.73 89.53 294.22 74.07 C 303.47 73.92 312.71 74.00 321.96 74.03 C 315.65 95.66 309.23 117.26 302.87 138.88 C 301.69 143.17 299.86 147.40 299.98 151.93 C 299.99 164.94 300.03 177.96 299.98 190.98 C 290.66 191.02 281.34 191.02 272.02 190.98 C 271.97 177.96 272.01 164.95 272.02 151.93 C 272.03 149.84 271.77 147.76 271.20 145.75 C 264.47 121.84 257.69 97.95 251.04 74.02 Z" />
<path fill="#f53948" d=" M 327.02 74.02 C 344.01 73.99 360.99 73.98 377.98 74.02 C 378.02 81.67 378.02 89.33 377.98 96.98 C 370.99 97.05 364.01 96.95 357.02 97.02 C 356.98 104.67 356.98 112.33 357.02 119.98 C 363.67 120.05 370.33 119.95 376.98 120.02 C 377.02 127.34 377.02 134.66 376.98 141.98 C 370.33 142.05 363.67 141.95 357.02 142.02 C 356.98 150.67 356.98 159.33 357.02 167.98 C 364.67 168.05 372.33 167.95 379.98 168.02 C 380.02 175.67 380.02 183.33 379.98 190.98 C 362.33 191.01 344.67 191.02 327.02 190.98 C 326.99 151.99 326.98 113.01 327.02 74.02 Z" />
<path fill="#000000" d=" M 133.48 99.77 C 135.12 116.16 136.45 132.57 137.94 148.97 C 134.65 149.01 131.36 149.02 128.07 149.00 C 129.82 132.58 131.60 116.17 133.48 99.77 Z" />
<path fill="#f53948" d=" M 237.98 201.96 C 245.91 197.72 255.15 196.71 264.01 197.12 C 272.80 197.54 281.86 199.63 289.02 204.97 C 292.59 207.59 295.30 211.41 296.31 215.75 C 298.14 223.34 298.03 231.22 297.99 238.98 C 287.66 239.02 277.34 239.02 267.01 238.98 C 266.76 233.28 267.63 227.43 266.21 221.85 C 265.03 218.08 259.16 218.17 257.49 221.49 C 255.36 225.73 255.74 230.80 256.70 235.31 C 257.63 239.48 261.23 242.19 264.56 244.48 C 274.30 250.88 284.53 256.88 292.62 265.40 C 297.53 270.48 299.44 277.59 300.31 284.42 C 301.27 292.78 301.33 301.32 299.89 309.63 C 299.07 314.66 296.71 319.51 292.73 322.76 C 285.56 328.70 276.18 331.39 267.01 331.88 C 257.41 332.35 247.40 330.95 239.01 325.99 C 233.79 322.99 229.29 318.33 227.52 312.47 C 224.63 302.95 225.00 292.86 225.02 283.02 C 235.34 282.98 245.66 282.98 255.98 283.02 C 256.27 290.50 255.43 298.06 256.51 305.49 C 256.96 311.14 265.78 311.51 267.70 306.64 C 269.64 302.20 269.04 297.17 268.58 292.49 C 268.15 288.94 267.02 285.22 264.10 282.93 C 254.73 275.11 243.77 269.43 234.41 261.58 C 227.91 256.01 224.84 247.40 224.25 239.06 C 223.74 231.38 223.89 223.50 226.02 216.05 C 227.73 209.88 232.40 204.90 237.98 201.96 Z" />
<path fill="#f53948" d=" M 18.01 199.03 C 28.99 198.98 39.97 198.97 50.95 199.04 C 53.26 228.76 55.10 258.52 57.52 288.24 C 60.27 258.46 63.82 228.75 67.69 199.09 C 79.07 198.91 90.45 198.99 101.83 199.05 C 104.30 229.78 106.79 260.51 109.48 291.21 C 111.67 260.39 114.46 229.59 119.06 199.02 C 130.04 198.98 141.01 198.97 151.99 199.03 C 146.90 242.33 141.73 285.62 136.67 328.93 C 122.81 329.08 108.96 328.98 95.10 328.98 C 91.87 312.17 89.32 295.23 86.93 278.28 C 86.09 272.65 85.67 266.96 84.41 261.40 C 80.97 283.88 78.03 306.43 74.78 328.94 C 61.00 329.04 47.21 329.06 33.43 328.93 C 28.32 285.62 23.14 242.33 18.01 199.03 Z" />
<path fill="#f53948" d=" M 159.02 199.02 C 177.67 198.98 196.33 198.98 214.98 199.02 C 215.02 207.67 215.02 216.33 214.98 224.98 C 207.66 225.05 200.34 224.95 193.02 225.02 C 192.98 233.01 192.98 240.99 193.02 248.98 C 199.67 249.05 206.33 248.95 212.98 249.02 C 213.02 257.34 213.02 265.66 212.98 273.98 C 206.33 274.05 199.67 273.95 193.02 274.02 C 192.98 283.67 192.98 293.33 193.02 302.98 C 201.01 303.05 208.99 302.94 216.98 303.02 C 217.02 311.67 217.02 320.33 216.98 328.98 C 197.66 329.01 178.34 329.01 159.02 328.98 C 158.99 285.66 158.99 242.34 159.02 199.02 Z" />
<path fill="#f53948" d=" M 306.02 199.02 C 330.67 198.99 355.33 198.98 379.98 199.02 C 380.02 207.67 380.02 216.33 379.98 224.98 C 373.33 225.05 366.67 224.95 360.02 225.02 C 359.96 259.67 360.04 294.33 359.98 328.98 C 348.66 329.02 337.34 329.02 326.02 328.98 C 325.96 294.33 326.04 259.67 325.98 225.02 C 319.33 224.95 312.67 225.05 306.02 224.98 C 305.98 216.33 305.98 207.67 306.02 199.02 Z" />
</svg>
